<svg viewBox="0 0 200 200" xmlns="http://www.w3.org/2000/svg" aria-hidden="true">
  <!-- Outer ears -->
  <circle cx="62" cy="48" r="18" fill="#D4A574"/>
  <circle cx="138" cy="48" r="18" fill="#D4A574"/>
  <!-- Inner ears -->
  <circle cx="62" cy="48" r="9" fill="#F4D6B5"/>
  <circle cx="138" cy="48" r="9" fill="#F4D6B5"/>
  <!-- Body -->
  <ellipse cx="100" cy="138" rx="62" ry="48" fill="#D4A574"/>
  <!-- Belly -->
  <ellipse cx="100" cy="143" rx="38" ry="32" fill="#F4D6B5"/>
  <!-- Head -->
  <circle cx="100" cy="80" r="52" fill="#D4A574"/>
  <!-- Snout area -->
  <ellipse cx="100" cy="93" rx="24" ry="17" fill="#F4D6B5"/>
  <!-- Nose -->
  <ellipse cx="100" cy="84" rx="6" ry="5" fill="#2D3748"/>
  <!-- Mouth -->
  <path d="M 100 90 Q 94 97 88 94" stroke="#2D3748" stroke-width="2" fill="none" stroke-linecap="round"/>
  <path d="M 100 90 Q 106 97 112 94" stroke="#2D3748" stroke-width="2" fill="none" stroke-linecap="round"/>
  <!-- Sleepy eyes -->
  <path d="M 73 70 Q 81 76 89 70" stroke="#2D3748" stroke-width="3" fill="none" stroke-linecap="round"/>
  <path d="M 111 70 Q 119 76 127 70" stroke="#2D3748" stroke-width="3" fill="none" stroke-linecap="round"/>
  <!-- Cheeks -->
  <circle cx="68" cy="88" r="6" fill="#F4A6A6" opacity="0.55"/>
  <circle cx="132" cy="88" r="6" fill="#F4A6A6" opacity="0.55"/>
  <!-- Paws -->
  <ellipse cx="58" cy="168" rx="14" ry="10" fill="#B58858"/>
  <ellipse cx="142" cy="168" rx="14" ry="10" fill="#B58858"/>
</svg>
